<?xml version="1.0" encoding="utf-8"?>
<!-- Generator: Adobe Illustrator 23.1.1, SVG Export Plug-In . SVG Version: 6.00 Build 0)  -->
<svg version="1.1" id="Layer_1" xmlns="http://www.w3.org/2000/svg" xmlns:xlink="http://www.w3.org/1999/xlink" x="0px" y="0px"
	 viewBox="0 0 708.66 708.66" style="enable-background:new 0 0 708.66 708.66;" xml:space="preserve">
<g>
	<g>
		<g>
			<path d="M183.2,60.33c4.29,127.01,6.05,253.99,6.9,380.97l0.37,47.62l0.04,11.9c-0.01,4.03,0.04,7.78,0.15,11.73
				c0.2,7.88,0.43,15.91,0.51,23.96c0.16,16.13-0.15,32.45-1.91,49c-0.9,8.28-2.18,16.62-4.21,25.05
				c-2.07,8.42-4.77,16.98-9.48,25.47c-2.37,4.22-5.23,8.44-9.02,12.3c-1.84,1.95-4.02,3.72-6.29,5.38
				c-2.35,1.59-4.84,3.07-7.52,4.19c-5.33,2.35-11.13,3.34-16.56,3.43c-1.37,0.03-2.69-0.06-4.03-0.11
				c-1.3-0.13-2.61-0.24-3.89-0.42c-1.25-0.21-2.53-0.4-3.75-0.66l-1.82-0.42c-0.58-0.14-1.27-0.29-1.72-0.42
				c-7.96-2.07-16.07-4.47-24.16-7.63c-8.08-3.15-16.17-7.13-23.72-12.3l-1.41-0.96l-1.32-0.96l-2.55-1.88
				c-1.64-1.22-3.25-2.36-4.91-3.65c-1.65-1.3-3.33-2.56-4.96-3.89c-1.62-1.35-3.27-2.66-4.87-4.05
				c-6.43-5.5-12.6-11.44-18.34-17.94c-5.71-6.51-11.07-13.52-15.56-21.25c-4.5-7.71-8.31-16.02-10.79-24.86
				c-2.55-8.81-3.74-18.06-3.75-27.23c0.09-9.17,1.33-18.25,3.66-26.88c1.1-4.35,2.55-8.53,4.07-12.67c0.4-1.05,0.86-2.15,1.29-3.22
				l0.66-1.62l0.33-0.81l0.38-0.75l3.05-5.95c4.03-7.5,8.56-14.71,13.47-21.61c9.84-13.78,21.21-26.32,33.59-37.49
				c12.36-11.2,25.6-21.24,39.47-30.08c27.7-17.79,57.24-31.72,87.32-43.49c15.06-5.86,30.25-11.25,45.58-16.09
				c15.34-4.82,30.77-9.22,46.25-13.32c15.49-4.08,31.02-7.87,46.59-11.43c15.57-3.56,31.16-6.92,46.8-9.97
				c15.63-3.1,31.27-6.04,46.9-8.93l23.45-4.29l11.82-2.07c3.95-0.66,7.9-1.27,11.85-1.88c15.82-2.36,31.69-4.33,47.59-5.9
				c15.9-1.56,31.82-2.81,47.76-3.43c15.94-0.66,31.88-0.95,47.81-0.81c15.93,0.23,31.84,0.74,47.7,1.83l-0.03,1.5
				c-31.72-0.64-63.46,0.23-95.09,2.67c-31.62,2.46-63.11,6.53-94.33,12.12c-15.61,2.75-31.12,6.08-46.68,9.28
				c-15.54,3.23-31.06,6.51-46.56,9.94c-30.98,6.86-61.84,14.27-92.38,22.86c-30.52,8.61-60.73,18.38-90.14,30.2
				c-29.37,11.83-58.01,25.71-84.47,43.08c-13.23,8.66-25.84,18.27-37.5,28.91c-11.68,10.62-22.28,22.42-31.39,35.28
				c-4.55,6.43-8.72,13.13-12.42,20.08l-2.66,5.23l-0.33,0.65l-0.27,0.68l-0.54,1.35c-0.36,0.91-0.74,1.8-1.08,2.72
				c-1.33,3.68-2.61,7.39-3.55,11.2c-2.02,7.56-3.03,15.37-3.09,23.17c0.05,7.8,1.06,15.6,3.27,23.09
				c4.26,15.05,12.73,28.68,23.08,40.45c10.35,11.84,22.63,21.94,35.49,31.03c6.43,4.43,13.48,7.96,20.78,10.83
				c7.31,2.89,14.87,5.17,22.51,7.19c3.75,0.99,7.57,1.65,11.38,1.59c3.8-0.06,7.6-0.71,11.06-2.23c1.75-0.71,3.37-1.7,4.95-2.74
				c1.52-1.13,3.02-2.3,4.34-3.69c2.71-2.69,4.93-5.88,6.86-9.24c3.84-6.75,6.36-14.25,8.28-21.85c1.91-7.62,3.19-15.42,4.12-23.26
				c1.83-15.69,2.3-31.54,2.3-47.38c0-7.92-0.15-15.85-0.27-23.79c-0.15-7.96,0.04-15.89,0.08-23.83l0.41-47.62l1.65-190.48
				l1.89-190.48L183.2,60.33z"/>
		</g>
	</g>
	<g>
		<g>
			<path d="M310.57,147.91c-5.23,0.43-10.45,0.85-15.66,1.32l-7.8,0.8l-7.78,0.9c-10.35,1.22-20.64,2.79-30.79,4.82
				c-10.16,1.97-20.2,4.32-30.06,7.23c-9.86,2.89-19.5,6.34-28.96,10.12c-9.45,3.84-18.65,8.22-27.6,13.06
				c-8.96,4.83-17.61,10.19-26.15,15.76c-8.51,5.61-16.79,11.6-24.86,17.89l-6.02,4.77l-5.95,4.87c-1.12,0.91-2.77,2.64-4.34,4.39
				c-1.58,1.77-3.16,3.64-4.71,5.54c-6.16,7.69-11.96,15.86-16.92,24.27c-4.93,8.4-9.12,17.19-11.43,25.71
				c-1.13,4.24-1.75,8.39-1.64,12.02c0.12,3.66,0.93,6.64,2.38,9c1.41,2.39,3.64,4.41,6.74,6.19c3.09,1.77,7,3.12,11.22,4.11
				c4.24,0.99,8.82,1.54,13.51,1.92c4.7,0.37,9.55,0.45,14.44,0.35c9.8-0.2,19.8-1.15,29.81-2.49c20.05-2.72,40.17-7.04,60.17-11.99
				c10-2.5,19.98-5.18,29.94-8.01c9.98-2.75,19.93-5.64,29.87-8.64c9.93-3,19.84-6.11,29.74-9.31l7.41-2.42l7.61-2.44
				c5.09-1.59,10.17-3.15,15.24-4.64c10.15-3.02,20.29-5.9,30.45-8.69c10.19-2.69,20.38-5.33,30.6-7.88
				c20.43-5.09,40.88-10.04,61.44-14.56c20.59-4.4,41.23-8.55,61.96-12.35c10.35-1.95,20.76-3.58,31.17-5.21
				c10.41-1.6,20.82-3.14,31.25-4.55c10.42-1.47,20.88-2.65,31.34-3.8c10.46-1.14,20.92-2.21,31.4-3.12
				c10.48-0.87,20.97-1.6,31.45-2.28c5.25-0.32,10.5-0.56,15.74-0.8c5.25-0.27,10.5-0.43,15.75-0.59l0.15,1.49
				c-41.65,4.41-83.12,10.33-124.36,17.6c-41.25,7.19-82.2,16-122.89,25.89c-20.35,4.94-40.63,10.13-60.85,15.57
				c-20.21,5.45-40.38,11.08-60.4,17.17c-5.01,1.51-10,3.08-14.98,4.67l-14.91,4.91c-9.96,3.27-19.95,6.45-29.97,9.53
				c-20.04,6.16-40.23,11.88-60.62,16.87c-20.39,4.95-40.96,9.28-61.82,12.01c-10.43,1.34-20.92,2.29-31.47,2.46
				c-10.53,0.14-21.18-0.41-31.56-2.92c-5.17-1.29-10.28-3.07-14.96-5.83c-4.64-2.75-8.87-6.54-11.59-11.35
				c-2.78-4.77-3.97-10.31-4.03-15.7c-0.07-5.42,0.89-10.75,2.33-15.87c2.96-10.25,7.75-19.78,13.19-28.81
				c5.48-9.02,11.68-17.57,18.46-25.64c1.7-2.01,3.45-3.99,5.26-5.93c1.82-1.92,3.65-3.85,5.83-5.54l6.23-4.81l6.31-4.71
				c8.47-6.21,17.15-12.14,26.09-17.67c17.86-11.07,36.78-20.51,56.57-27.67c19.79-7.14,40.39-11.91,61.19-14.76
				c20.82-2.84,41.83-3.83,62.8-3.78V147.91z"/>
		</g>
	</g>
</g>
</svg>
